#VRML V2.0 UTF8
 BACKGROUND {
   SKYCOLOR 0.933 0.863 0.51
   GROUNDCOLOR 0.933 0.863 0.51
 }
 VIEWPOINT {
   POSITION 0 0 40 
   FIELDOFVIEW 0.8 
 } # CLOSE VIEWPOINT
 TRANSFORM{
   TRANSLATION    2.7231715088642802E-002   2.7219764644498008E-002  -1.9743024940664220E-006
   CHILDREN[
     SHAPE{
       APPEARANCE APPEARANCE {
         MATERIAL MATERIAL {
           DIFFUSECOLOR    1.0000000000000000        0.0000000000000000        0.0000000000000000     
           SHININESS 1
           TRANSPARENCY 0.5
         } # CLOSE MATERIAL
       } # CLOSE APPEARANCE
       GEOMETRY SPHERE{ RADIUS   0.82770000638499763      }
     }   # CLOSE SHAPE
   ]     # CLOSE CHILDREN
 }       # CLOSE TRANSFORM
 TRANSFORM{
   TRANSLATION    11.365587670526839        11.365575720082694       -1.9743024940664220E-006
   CHILDREN[
     SHAPE{
       APPEARANCE APPEARANCE {
         MATERIAL MATERIAL {
           DIFFUSECOLOR    1.0000000000000000        0.0000000000000000        0.0000000000000000     
           SHININESS 1
           TRANSPARENCY 0.5
         } # CLOSE MATERIAL
       } # CLOSE APPEARANCE
       GEOMETRY SPHERE{ RADIUS   0.82770000638499763      }
     }   # CLOSE SHAPE
   ]     # CLOSE CHILDREN
 }       # CLOSE TRANSFORM
 TRANSFORM{
   TRANSLATION    11.365587670526839        2.7219764644498008E-002   11.338353981135702     
   CHILDREN[
     SHAPE{
       APPEARANCE APPEARANCE {
         MATERIAL MATERIAL {
           DIFFUSECOLOR    1.0000000000000000        0.0000000000000000        0.0000000000000000     
           SHININESS 1
           TRANSPARENCY 0.5
         } # CLOSE MATERIAL
       } # CLOSE APPEARANCE
       GEOMETRY SPHERE{ RADIUS   0.82770000638499763      }
     }   # CLOSE SHAPE
   ]     # CLOSE CHILDREN
 }       # CLOSE TRANSFORM
 TRANSFORM{
   TRANSLATION    11.122391152846641        1.8660118443565827        11.338398005582629     
   CHILDREN[
     SHAPE{
       APPEARANCE APPEARANCE {
         MATERIAL MATERIAL {
           DIFFUSECOLOR   0.52941176470588236       0.49019607843137253       0.51372549019607838     
           SHININESS 1
           TRANSPARENCY 0.5
         } # CLOSE MATERIAL
       } # CLOSE APPEARANCE
       GEOMETRY SPHERE{ RADIUS   0.36282738246937590      }
     }   # CLOSE SHAPE
   ]     # CLOSE CHILDREN
 }       # CLOSE TRANSFORM
 TRANSFORM{
   TRANSLATION    22.703943625965035        11.365575720082694        11.338353981135702     
   CHILDREN[
     SHAPE{
       APPEARANCE APPEARANCE {
         MATERIAL MATERIAL {
           DIFFUSECOLOR    1.0000000000000000        0.0000000000000000        0.0000000000000000     
           SHININESS 1
           TRANSPARENCY 0.5
         } # CLOSE MATERIAL
       } # CLOSE APPEARANCE
       GEOMETRY SPHERE{ RADIUS   0.82770000638499763      }
     }   # CLOSE SHAPE
   ]     # CLOSE CHILDREN
 }       # CLOSE TRANSFORM
 TRANSFORM{
   TRANSLATION    2.7231715088642802E-002   11.365575720082694        11.338353981135702     
   CHILDREN[
     SHAPE{
       APPEARANCE APPEARANCE {
         MATERIAL MATERIAL {
           DIFFUSECOLOR    1.0000000000000000        0.0000000000000000        0.0000000000000000     
           SHININESS 1
           TRANSPARENCY 0.5
         } # CLOSE MATERIAL
       } # CLOSE APPEARANCE
       GEOMETRY SPHERE{ RADIUS   0.82770000638499763      }
     }   # CLOSE SHAPE
   ]     # CLOSE CHILDREN
 }       # CLOSE TRANSFORM
 TRANSFORM{
   TRANSLATION    1.8660218430978575        11.122358362057080        11.338321093865650     
   CHILDREN[
     SHAPE{
       APPEARANCE APPEARANCE {
         MATERIAL MATERIAL {
           DIFFUSECOLOR   0.52941176470588236       0.49019607843137253       0.51372549019607838     
           SHININESS 1
           TRANSPARENCY 0.5
         } # CLOSE MATERIAL
       } # CLOSE APPEARANCE
       GEOMETRY SPHERE{ RADIUS   0.36282738246937590      }
     }   # CLOSE SHAPE
   ]     # CLOSE CHILDREN
 }       # CLOSE TRANSFORM
 TRANSFORM{
   TRANSLATION    11.365587670526839        22.703931675520892        11.338353981135702     
   CHILDREN[
     SHAPE{
       APPEARANCE APPEARANCE {
         MATERIAL MATERIAL {
           DIFFUSECOLOR    1.0000000000000000        0.0000000000000000        0.0000000000000000     
           SHININESS 1
           TRANSPARENCY 0.5
         } # CLOSE MATERIAL
       } # CLOSE APPEARANCE
       GEOMETRY SPHERE{ RADIUS   0.82770000638499763      }
     }   # CLOSE SHAPE
   ]     # CLOSE CHILDREN
 }       # CLOSE TRANSFORM
 TRANSFORM{
   TRANSLATION    11.365587670526839        11.365575720082694        22.676709936573900     
   CHILDREN[
     SHAPE{
       APPEARANCE APPEARANCE {
         MATERIAL MATERIAL {
           DIFFUSECOLOR    1.0000000000000000        0.0000000000000000        0.0000000000000000     
           SHININESS 1
           TRANSPARENCY 0.5
         } # CLOSE MATERIAL
       } # CLOSE APPEARANCE
       GEOMETRY SPHERE{ RADIUS   0.82770000638499763      }
     }   # CLOSE SHAPE
   ]     # CLOSE CHILDREN
 }       # CLOSE TRANSFORM
 TRANSFORM{
   TRANSLATION    22.703943625965035        22.703931675520892        22.676709936573900     
   CHILDREN[
     SHAPE{
       APPEARANCE APPEARANCE {
         MATERIAL MATERIAL {
           DIFFUSECOLOR    1.0000000000000000        0.0000000000000000        0.0000000000000000     
           SHININESS 1
           TRANSPARENCY 0.5
         } # CLOSE MATERIAL
       } # CLOSE APPEARANCE
       GEOMETRY SPHERE{ RADIUS   0.82770000638499763      }
     }   # CLOSE SHAPE
   ]     # CLOSE CHILDREN
 }       # CLOSE TRANSFORM
 TRANSFORM{
   TRANSLATION    11.213482573860293        1.1772758990915948        11.338381515834058     
   ROTATION       1.0000000000000000        0.0000000000000000        0.0000000000000000      -0.13149566676022237     
   CHILDREN [
     SHAPE{
       APPEARANCE APPEARANCE {
         MATERIAL MATERIAL {
           DIFFUSECOLOR   0.29999999999999999       0.29999999999999999       0.29999999999999999     
           SHININESS 1
           TRANSPARENCY 0.7
         } # CLOSE MATERIAL
       }   # CLOSE APPEARANCE
       GEOMETRY CYLINDER{
         RADIUS   0.20000000000000001     
         HEIGHT   0.66308688765442791     
       }   # CLOSE GEOMETRY
     }     # CLOSE SHAPE
   ]       # CLOSE CHILDREN
 }         # CLOSE TRANSFORM
 TRANSFORM{
   TRANSLATION    1.1772865296778869        11.213457602126585        11.338333412087236     
   ROTATION       1.0000000000000000        0.0000000000000000        0.0000000000000000       -1.7023032682359365     
   CHILDREN [
     SHAPE{
       APPEARANCE APPEARANCE {
         MATERIAL MATERIAL {
           DIFFUSECOLOR   0.29999999999999999       0.29999999999999999       0.29999999999999999     
           SHININESS 1
           TRANSPARENCY 0.7
         } # CLOSE MATERIAL
       }   # CLOSE APPEARANCE
       GEOMETRY CYLINDER{
         RADIUS   0.20000000000000001     
         HEIGHT   0.66308768521226613     
       }   # CLOSE GEOMETRY
     }     # CLOSE SHAPE
   ]       # CLOSE CHILDREN
 }         # CLOSE TRANSFORM
